<?xml version="1.0" standalone="no"?>
<!DOCTYPE svg PUBLIC "-//W3C//DTD SVG 20010904//EN"
 "http://www.w3.org/TR/2001/REC-SVG-20010904/DTD/svg10.dtd">
<svg version="1.0" xmlns="http://www.w3.org/2000/svg"
 width="700.000000pt" height="700.000000pt" viewBox="0 0 700.000000 700.000000"
 preserveAspectRatio="xMidYMid meet">
<metadata>
Created by potrace 1.14, written by Peter Selinger 2001-2017
</metadata>
<g transform="translate(0.000000,700.000000) scale(0.100000,-0.100000)"
fill="#000000" stroke="none">
<path d="M3220 6994 c-182 -20 -243 -29 -360 -50 -786 -142 -1524 -572 -2041
-1189 -436 -522 -692 -1103 -796 -1810 -25 -173 -25 -717 0 -890 56 -381 144
-686 292 -1015 55 -122 173 -340 184 -340 4 0 29 78 55 173 247 894 719 2510
971 3327 81 261 173 558 204 660 52 170 59 186 86 199 19 9 88 17 195 22 234
11 670 11 670 0 0 -5 -58 -195 -129 -423 -134 -427 -494 -1587 -670 -2158
-292 -950 -523 -1729 -646 -2180 -14 -52 -38 -120 -53 -150 -27 -54 -28 -55
-104 -80 -42 -14 -79 -28 -83 -31 -11 -12 246 -243 400 -361 34 -25 119 -84
190 -130 449 -293 903 -461 1470 -545 152 -22 705 -26 855 -5 823 113 1504
445 2065 1007 493 492 830 1119 959 1783 55 283 61 346 61 692 0 261 -4 349
-18 445 -48 317 -115 581 -212 826 -73 183 -164 374 -174 363 -4 -5 -13 -29
-20 -54 -7 -25 -51 -170 -99 -322 l-86 -278 -46 0 c-25 0 -207 11 -405 25
-198 14 -369 25 -380 25 -48 1 -49 10 -11 146 19 71 58 201 86 289 61 192 93
315 85 323 -15 15 -1173 48 -1188 33 -17 -17 -215 -623 -250 -766 -41 -167
-45 -231 -18 -290 53 -118 194 -179 519 -225 199 -28 280 -46 413 -90 546
-181 800 -558 699 -1040 -45 -215 -186 -712 -286 -1010 -68 -202 -103 -270
-176 -347 -74 -77 -237 -188 -346 -235 l-77 -33 -600 1 c-338 0 -831 8 -1130
18 l-530 17 -88 87 c-113 112 -137 159 -137 264 0 43 9 122 21 176 22 102 240
836 259 871 6 12 32 27 63 36 76 23 453 56 662 58 l180 2 -3 -35 c-5 -57 -47
-200 -131 -452 l-79 -237 31 -5 c69 -11 725 -56 1037 -71 l136 -7 58 183 c173
541 212 699 204 819 -13 183 -130 248 -533 295 -440 52 -673 139 -901 336
-201 174 -264 378 -201 654 79 345 327 1102 432 1321 51 105 109 165 259 266
272 184 412 205 1341 193 511 -6 529 -5 509 12 -12 10 -62 52 -110 94 -502
427 -1118 699 -1799 795 -114 15 -640 29 -735 18z"/>
</g>
</svg>
