<?xml version="1.0" standalone="no"?>
<!DOCTYPE svg PUBLIC "-//W3C//DTD SVG 20010904//EN"
 "http://www.w3.org/TR/2001/REC-SVG-20010904/DTD/svg10.dtd">
<svg version="1.0" xmlns="http://www.w3.org/2000/svg"
 width="4000.000000pt" height="4000.000000pt" viewBox="0 0 4000.000000 4000.000000"
 preserveAspectRatio="xMidYMid meet">
<metadata>
Created by potrace 1.14, written by Peter Selinger 2001-2017
</metadata>
<g transform="translate(0.000000,4000.000000) scale(0.100000,-0.100000)"
fill="#000000" stroke="none">
<path d="M19920 34020 c-1399 -110 -2869 -513 -4175 -1144 -751 -363 -1374
-732 -2120 -1256 -2494 -1752 -4404 -3769 -5777 -6100 -342 -581 -668 -1215
-925 -1800 -501 -1137 -791 -2351 -863 -3604 -13 -231 -13 -843 0 -1072 53
-906 210 -1756 491 -2651 390 -1246 1044 -2547 1881 -3747 116 -166 163 -254
188 -351 36 -141 28 -222 -55 -521 -88 -317 -329 -1224 -510 -1914 -91 -349
-170 -649 -174 -666 -16 -58 -8 -58 190 -9 473 119 1565 410 2064 551 165 47
331 89 368 95 133 21 278 -26 399 -128 31 -26 139 -127 240 -223 2091 -1996
4330 -3374 6508 -4004 711 -206 1352 -324 2130 -393 287 -25 1219 -25 1509 0
1172 103 2203 357 3296 811 1612 671 3568 1953 5125 3360 562 508 1169 1121
1620 1636 1340 1531 2325 3129 2938 4770 618 1657 846 3288 677 4860 -181
1678 -775 3365 -1762 5000 -108 179 -149 257 -196 375 -130 326 -140 572 -37
985 66 266 85 438 77 714 -6 221 -26 362 -77 549 -208 747 -813 1327 -1620
1552 -276 76 -423 95 -775 95 -522 1 -691 28 -940 152 -180 90 -317 189 -600
433 -1510 1304 -2932 2205 -4420 2801 -502 201 -994 361 -1485 484 -511 128
-1394 277 -1930 324 -417 37 -1023 54 -1260 36z m-2445 -4847 c39 -9 75 -18
82 -22 8 -4 -90 -329 -313 -1041 -1077 -3436 -1144 -3650 -1893 -6130 -868
-2876 -1862 -6190 -2786 -9289 -256 -861 -480 -1597 -496 -1637 -70 -169 -179
-271 -349 -327 -41 -14 -203 -53 -360 -87 -470 -102 -864 -193 -1690 -391
-212 -50 -502 -120 -645 -154 -143 -34 -261 -61 -263 -60 -1 1 7 60 18 131 12
73 81 357 161 659 1149 4336 2444 8871 3966 13895 349 1154 606 1991 1199
3910 52 168 106 336 121 374 40 106 102 166 190 184 21 4 702 6 1513 5 1303
-3 1483 -6 1545 -20z m12385 -3 c522 -5 937 -14 995 -20 1058 -117 1710 -1007
1509 -2060 -19 -97 -173 -658 -335 -1215 -321 -1106 -723 -2447 -750 -2503
-36 -73 -92 -117 -165 -128 -25 -3 -213 8 -427 25 -211 18 -878 67 -1483 111
-918 66 -1113 83 -1182 101 -75 20 -82 24 -76 42 64 200 844 2774 844 2784 0
9 -16 13 -52 13 -29 0 -237 7 -463 15 -691 24 -1027 34 -1895 55 -459 11
-1048 27 -1309 35 -499 16 -555 14 -631 -25 -44 -22 -102 -84 -129 -138 -11
-22 -52 -145 -91 -273 -101 -333 -255 -828 -455 -1469 -299 -958 -382 -1232
-407 -1340 -20 -92 -23 -131 -22 -305 0 -232 13 -294 89 -452 147 -302 429
-488 895 -592 265 -59 433 -82 1230 -166 816 -86 1388 -229 1943 -486 584
-270 1122 -706 1496 -1212 300 -405 484 -849 557 -1341 22 -148 29 -476 15
-647 -25 -298 -60 -457 -226 -1049 -416 -1478 -876 -2935 -1205 -3820 -113
-304 -291 -587 -514 -818 -410 -424 -960 -684 -1711 -811 -448 -76 -833 -78
-1695 -11 -744 58 -846 61 -3400 95 -2217 30 -2344 34 -2590 71 -638 95 -1089
421 -1256 907 -86 248 -96 550 -29 852 62 275 1044 3407 1106 3525 41 77 102
145 153 169 l43 22 1592 6 c1076 4 1591 3 1591 -4 0 -5 -191 -617 -425 -1358
-234 -741 -423 -1350 -420 -1353 7 -8 218 -18 1340 -67 1236 -54 1956 -88
2460 -116 204 -11 398 -18 433 -15 114 10 188 60 237 161 14 27 74 208 134
400 60 193 211 665 334 1050 222 691 416 1303 456 1440 86 295 94 601 20 817
-71 208 -204 377 -400 508 -158 105 -308 170 -543 234 -241 66 -488 103 -939
141 -348 29 -509 46 -767 81 -1087 148 -1978 490 -2594 997 -112 93 -313 294
-392 392 -552 692 -684 1582 -388 2615 60 209 189 614 470 1475 398 1219 487
1504 643 2061 98 349 139 460 240 662 391 776 1210 1448 2156 1769 231 78 514
142 720 162 122 11 4548 12 5665 1z"/>
</g>
</svg>
