<svg id="Layer_1" data-name="Layer 1" xmlns="http://www.w3.org/2000/svg" xmlns:xlink="http://www.w3.org/1999/xlink" viewBox="0 0 9806.95 3309.06"><defs><style>.cls-1{fill:#222;}.cls-2,.cls-3{fill:#fee465;}.cls-3{stroke:#222;stroke-miterlimit:10;stroke-width:112px;}.cls-4{fill:url(#linear-gradient);}.cls-5{fill:#8e3c1f;}.cls-6{fill:#c16828;}.cls-7{fill:url(#linear-gradient-2);}.cls-8{fill:url(#linear-gradient-3);}.cls-9{fill:url(#linear-gradient-4);}.cls-10{fill:url(#linear-gradient-5);}.cls-11{fill:url(#linear-gradient-6);}.cls-12{fill:url(#linear-gradient-7);}.cls-13{fill:url(#linear-gradient-8);}.cls-14{fill:url(#linear-gradient-9);}.cls-15{fill:url(#linear-gradient-10);}.cls-16{fill:url(#linear-gradient-11);}.cls-17{fill:url(#linear-gradient-12);}.cls-18{fill:url(#linear-gradient-13);}</style><linearGradient id="linear-gradient" x1="657.73" y1="1729.14" x2="657.73" y2="2819.29" gradientUnits="userSpaceOnUse"><stop offset="0" stop-color="#f29a21"/><stop offset="1" stop-color="#f8ce43"/></linearGradient><linearGradient id="linear-gradient-2" x1="3544.17" y1="1729.14" x2="3544.17" y2="2819.29" xlink:href="#linear-gradient"/><linearGradient id="linear-gradient-3" x1="2192.44" y1="3460.72" x2="2192.44" y2="4551.01" xlink:href="#linear-gradient"/><linearGradient id="linear-gradient-4" x1="3533.02" y1="114.75" x2="3533.02" y2="1205.04" xlink:href="#linear-gradient"/><linearGradient id="linear-gradient-5" x1="6246.59" y1="114.75" x2="6246.59" y2="1205.04" xlink:href="#linear-gradient"/><linearGradient id="linear-gradient-6" x1="7661.91" y1="1729.14" x2="7661.91" y2="2819.42" xlink:href="#linear-gradient"/><linearGradient id="linear-gradient-7" x1="7699.07" y1="114.75" x2="7699.07" y2="1205.04" xlink:href="#linear-gradient"/><linearGradient id="linear-gradient-8" x1="6341.24" y1="5075.11" x2="6341.24" y2="6165.26" xlink:href="#linear-gradient"/><linearGradient id="linear-gradient-9" x1="9246.9" y1="5075.11" x2="9246.9" y2="6165.26" xlink:href="#linear-gradient"/><linearGradient id="linear-gradient-10" x1="4985.57" y1="5075.11" x2="4985.57" y2="6274.2" xlink:href="#linear-gradient"/><linearGradient id="linear-gradient-11" x1="4888.55" y1="114.94" x2="4888.55" y2="1205.04" xlink:href="#linear-gradient"/><linearGradient id="linear-gradient-12" x1="2229.18" y1="5075.11" x2="2229.18" y2="6324.36" xlink:href="#linear-gradient"/><linearGradient id="linear-gradient-13" x1="7972.3" y1="114.75" x2="7972.3" y2="643.12" xlink:href="#linear-gradient"/></defs><title>PixelSquared Letter Logo (Filled)</title><polygon class="cls-1" points="307.85 3094.05 56.62 2842.85 56.87 2648.3 56.28 2648.57 56.98 2145.93 56.98 2042.64 56 2042.64 56 1673.47 1230.81 1673.92 1424.52 1926.58 1424.53 2343.14 1426.23 2345.35 1424.83 3094.05 307.85 3094.05"/><path class="cls-1" d="M209,5075.47l1091.18.41,165.35,215.67v416.57L1299.69,5492h.51v-1h-833v62.05l998.4,157.23v-2.17l1.67,2.17L1466,6384H428.07L209.68,6165.66l.32-258,.29-.13h832.76v-48.89h-724l-108.78,48.89H210v.13l-.58.26L210,5492V5332.61h-1V5075.47M1300.2,5332.29v0M97,4963.42v481.19h1v47.22l-.58,415.94-.24,173.39.6-.27-.1,84.63L97.62,6212l32.87,32.86,218.39,218.37,32.8,32.8H1577.75l.21-111.79,1.26-673.74.07-38.14-1.74-2.26V5253.56l-23.12-30.16-165.35-215.67-33.61-43.83-55.23,0-1091.17-.41-112-.05Z" transform="translate(-97.02 -3345.98)"/><polygon class="cls-1" points="1747.51 1479.17 1497.34 1228.29 1497.21 114.95 1497.21 58.95 1578.06 58.95 2669.12 59.22 2825.12 317.18 2825.12 1071.44 2068.16 1071.44 2067.14 1479.17 1747.51 1479.17"/><path class="cls-1" d="M1675.09,3460.92l1059.47.27,131.58,217.58v682.65H2109.79l-.47-.46-1,408.18H1867.77l-217.4-218-.14-1066.47v-23.73h24.86m341.8,423.37h472.25v-55.73H2016.89v55.73m-341.77-535.37H1538.23v135.73l.14,1066.48v46.29l32.69,32.78,217.41,218,32.82,32.91H2220l.28-111.72.73-296h757.1V3647.53L2962,3620.81,2830.4,3403.23l-32.68-54h-63.13l-1059.47-.27Z" transform="translate(-97.02 -3345.98)"/><polygon class="cls-1" points="3083.67 1479.01 2932 1220.4 2931.57 971.29 2931.57 890.04 3352.98 890.04 3352.98 647.86 3055.33 647.88 2952.43 429.07 2931.57 429.07 2931.57 58.95 4123.01 58.95 4180.38 325.85 4180.38 646.3 3789.02 646.46 3789.37 890.04 4123.43 890.04 4181.41 1160.33 4181.41 1479.01 3083.67 1479.01"/><path class="cls-1" d="M4174.79,3460.92l46.61,216.86V3936.3l-391.43.16.5,355.55h344.72l47.24,220.24V4769H3212.78L3085,4551.12l-.41-233.95V4292H3506V3937.83l-318.11,0L3085,3719.05h-.41V3460.92h1090.2m90.48-112H2972.59v482.13h41.32l72.64,154.47,30.26,64.34H3394V4180H2972.59v137.35l.41,234,.05,30.32,15.34,26.15,127.78,217.87,32.45,55.34H4334.43V4500.37l-2.49-11.61-47.24-220.24-19-88.51h-323.4l-.18-131.6,279.32-.11,111.95,0V3665.88l-2.5-11.64-46.61-216.85-19-88.47Z" transform="translate(-97.02 -3345.98)"/><polygon class="cls-1" points="5594.26 1479.51 5596.09 375 5655.24 58.95 6766.87 58.95 6847.03 60.95 6847.03 396.5 6762.6 481.34 6847.03 481.34 6847.03 820.24 6776.91 891.01 6847.03 891.01 6847.03 1180.76 6846.97 1180.76 6846.95 1220.22 6696.18 1480.11 5594.26 1479.51"/><path class="cls-1" d="M6863.2,3460.92l24.85.62v257.82l-108.81,109.33-723.26-.13v54.75h832.07v259.86L6779.22,4253,6056,4252.9V4293h832.07v24.87l-.07,233.26-127,218.95-1013.58-.56,1.72-1043.3,49.65-265.29H6863.2m-1064.37,1090v0m1065.76-1202H5705.77l-17.1,91.4L5639,3705.61l-1.89,10.12,0,10.3-1.72,1043.3-.18,112.12,112.12.06,1013.58.56,64.55,0,32.39-55.83,127-219,15.12-26v-54.53h.06V3771.31h-5.69l5.69-5.72V3352.31l-109.2-2.73L6866,3349l-1.4,0Z" transform="translate(-97.02 -3345.98)"/><polygon class="cls-1" points="6951.9 3094.15 6951.9 3037.74 6951.75 1975.03 7080.48 1673.49 8264.64 1673.49 8262.81 1963.24 8262.81 2793.34 8262.77 2793.34 8262.73 2838.49 8069.4 3094.3 6951.9 3094.15"/><path class="cls-1" d="M8305.31,5075.47l-1.47,233.58v188.8l-832.07-54.75v54.75h832.07v408.7l-832.07-40.08v40.08h832.07v189l-.07,70.11-165.21,218.61-1033.63-.14v-.41l-.16-1051.27,109.71-257H8305.31m112.71-112H7140.52l-29,68-109.71,257-9,21.08v22.91l.16,1051.27v112.38h112l1033.63.14h55.75l33.62-44.48,165.21-218.61,22.61-29.92,0-37.5,0-26.46h0V5309.4l1.47-233.23.71-112.7Z" transform="translate(-97.02 -3345.98)"/><polygon class="cls-1" points="6952.8 1479.07 6951.36 388.56 7119.99 57.09 7179.49 58.95 7467.9 58.95 7467.9 891.01 8299.97 891.01 8299.97 1228.27 8050.11 1479.21 6952.8 1479.07"/><path class="cls-1" d="M7250.81,3460.15l24.82.77h233.29V4293H8341v258.13l-217.11,218.07-1018.13-.14-1.35-1021.13,146.41-287.77M7183.23,3346,7151,3409.36l-146.4,287.78-12.21,24,0,26.93,1.35,1021.13.15,111.83,111.84,0,1018.12.14h46.54l32.84-33,217.12-218.07,32.63-32.77V4181H7620.92V3348.92H7277.38l-23.07-.72-71.08-2.22Z" transform="translate(-97.02 -3345.98)"/><polygon class="cls-2" points="7509.94 892.16 7509.94 311.95 7670.87 58.74 8218.84 58.95 8298.99 58.95 8298.97 663.78 8103.78 892.31 7509.94 892.16"/><path class="cls-1" d="M7798.65,3460.72l517.19.21H8340v24.35l0,503.82-165,193.18-512-.13V3674.22l135.69-213.5m-61.5-112-33,52-135.69,213.49-17.48,27.5v652.49l112,0,512,.13,51.65,0,33.54-39.28,165-193.18,26.83-31.42V3989.1l0-503.82V3348.93H8315.84l-517.14-.21-61.55,0Z" transform="translate(-97.02 -3345.98)"/><polygon class="cls-1" points="6389.35 3094.13 6389.35 3037.99 6387.69 2853.18 6117.32 2676.35 6012.03 2676.04 6012.03 2826.66 6010.28 2833.57 5943.77 3093.34 5596.6 3093.15 5596.6 3036.77 5596.97 1959.94 5653.04 1673.49 6845.07 1673.49 6845.07 2218.1 6846.05 2218.1 6846.05 2459.16 6808.54 2459.16 6793.77 2470.68 6845.07 2506.31 6845.07 2831.37 6730.29 3094.31 6389.35 3094.13"/><path class="cls-1" d="M6886.1,5075.47v544.6h1v129.07h-.75l-90,70.1,89.74,62.33v284.09l-95.43,218.61-248.3-.14v-.41l-1.93-215L6231.1,5966.37l-178.05-.51v199.8l-55.72,217.63-247.71-.13v-.42l.37-1071.38,46.17-235.89H6886.1M6054,5492h466.39v-49.73l-466.39-.14V5492M6629,6150V5951.48l-.13.13L6629,6150M6998.1,4963.47H5704L5686.25,5054l-46.18,235.89-2.08,10.64v10.84l-.37,1071.38v112.4l111.94.06,247.71.13,87,.05,21.58-84.27,55.71-217.63,3.5-13.67V6078.18l32.53.1L6429,6229.62l1.39,154.6v111.85l111.94.06,248.3.14,73.36,0,29.35-67.23,95.42-218.61,9.36-21.43v-327.9h1V5508.07h-1v-544.6Z" transform="translate(-97.02 -3345.98)"/><polygon class="cls-1" points="5100.28 3093.15 5100.28 2676.62 4656.86 2676.62 4656.86 2817.28 4671.59 3093.15 4316.75 3093.15 4287.71 2822.32 4287.71 1673.49 5489.91 1673.49 5489.91 2822.56 5453.01 3093.15 5100.28 3093.15"/><path class="cls-1" d="M5530.93,5075.47V6164.74l-29.78,218.38H5253.31V5966.6H4697.89v198.15l11.65,218.37H4464.09l-23.35-217.82V5075.47H5530.93m-833,416.52h575.89v-49.87H4697.89V5492m0,257.15h575.89v-1H4697.89v1m945-785.67H4328.74V6171.29l.64,5.95,23.35,217.82,10.73,100.06h464.22l-6.3-118-11.49-215.39V6078.6h331.42v416.52h457.6l13.21-96.87,29.78-218.38,1-7.53V4963.47Z" transform="translate(-97.02 -3345.98)"/><polygon class="cls-2" points="5162.23 714.48 5433.91 442.81 5433.91 334.05 5107.73 659.99 5162.23 714.48"/><path class="cls-1" d="M2212.52,6598.61l-103.63-159.07H1807.72l-152.28-217.88h-27V5019.46h1171.7L2933,5171.8l.5,1212.71v56H2538.8V6599Zm180.27-905.12,68.71,137.76V5609.08l-353.85.1-.15,84Z" transform="translate(-97.02 -3345.98)"/><path class="cls-1" d="M1941.86,5075.46h832.82L2877,5192.8l.49,1191.34v.37H2482.8v158.4l-239.9-.26-103.66-159.11h71.08L2101,6323.92h-.58l38.84,59.62H1836.9l-152.28-217.88h-.17V5075.46h257.41m-.26,257v575.05h0V5332.48l575.9.13v-1H1941.6v.84m109.51,576H2101V5750.42l-1.28-1.28H2101l257.14.31L2412.75,5859l-.13,49.52H2517.5V5553.06l-465.75.13-.64,355.32m307,257.15h416.53v-1H2358.12v1m0,158.39v-49.86h-1v49.86h1M1941.86,4963.46H1572.45v1314.2h53.8l118.86,170,33.43,47.84h300l70.51,108.24,33.1,50.8,60.62.07,239.91.26,112.12.12V6496.51h394.69V6384.14L2989,5192.75l0-41.94-27.57-31.62L2859.1,5001.86l-33.48-38.39H1941.86Z" transform="translate(-97.02 -3345.98)"/><path class="cls-1" d="M8466.1,6440.13v-56.41l-.85-1068.64,205.18-298.33,289,2.71h598.41L9848,5309.62V5931.5l-290.16,290.16h-1.13l-217.86,218.61Zm825.79-588.26,0-167.9L9218.8,5606l-203.87.44v245.11Z" transform="translate(-97.02 -3345.98)"/><path class="cls-1" d="M8699.69,5073l259.44,2.45h575.49L9792,5332.82v575.49l-257.36,257.35h-1.18l-217.86,218.61-793.48-.14v-.41l-.84-1051.27L8699.69,5073m643.15,834.9h5l0-246.1L9243,5549.93l-14.57.09-269.46.58v356.93l383.91.39m-701.67-947.45-33.76,49.09L8429,5269l-19.75,28.71,0,34.84.84,1051.27v112.31h112l793.49.14h46.51l32.84-32.95,185-185.67H9581l32.81-32.81,257.35-257.35,32.81-32.8V5286.42l-32.81-32.8-257.35-257.35-32.81-32.8H8959.66L8700.74,4961l-59.57-.56Zm429.76,701.89,123.66-.27,41.28,44v89.69l-164.95-.16V5662.36Z" transform="translate(-97.02 -3345.98)"/><path class="cls-3" d="M3095.35,6165.66" transform="translate(-97.02 -3345.98)"/><path class="cls-3" d="M3180.68,6140.11" transform="translate(-97.02 -3345.98)"/><path class="cls-3" d="M4186.52,5075.82" transform="translate(-97.02 -3345.98)"/><polygon class="cls-1" points="2942.32 2831.78 2943.35 1676.52 3298.7 1673.35 3374.18 1940.2 3374.09 2506.53 3776.35 2506.53 3776.36 1673.57 4138.52 1673.07 4181.38 2007.71 4181.22 2807.27 4179.56 3093.32 3061.31 3093.73 2942.32 2831.78"/><path class="cls-1" d="M4186.27,5075.11l36.14,282.14-.16,795.67-1.34,230.4-1026.52.37-99-218,1-1087.66,257.15-2.3,61.73,218.24-.1,614.57h514.26v-833l256.89-.36M3438,4962.94l-85.5.77L3095.33,4966l-110.9,1-.1,110.91-1,1087.66,0,24.3,10.05,22.12,99,218,29.85,65.71,72.16,0,1026.52-.37,111.31,0,.64-111.31,1.35-230.4v-.63l.16-795.67v-7.15l-.91-7.1-36.14-282.14-12.54-97.9-98.7.13-256.89.36-111.85.15v832.89H3527.13l.08-502.55v-15.54l-4.23-15-61.73-218.24L3438,4962.94Z" transform="translate(-97.02 -3345.98)"/><path class="cls-3" d="M8689.61,5073" transform="translate(-97.02 -3345.98)"/><path class="cls-3" d="M4441,3937.82" transform="translate(-97.02 -3345.98)"/><path class="cls-3" d="M4441,3937.82" transform="translate(-97.02 -3345.98)"/><polygon class="cls-1" points="5191.38 1478.36 4888.55 1175.52 4585.54 1478.53 4288.15 1478.53 4287.47 1205.01 4287.57 962.83 4482.94 767.48 4286.5 573.07 4287.47 333.96 4287.58 59.04 4585.69 58.53 4888.63 361.47 5191.35 58.75 5489.98 58.75 5489.62 334.3 5488.54 583.33 5296.41 768.52 5489.52 955.86 5489.62 1205.01 5489.51 1480.49 5191.38 1478.36"/><path class="cls-1" d="M4659.55,3460.54l326.1,326.1,325.92-325.92h219.36l-.28,219.31-1,225.37-216.79,209,217.68,211.17.09,225.47-.09,219.06-218.79-1.57-326.2-326.2-326.2,326.2H4441L4440.5,4551l.08-219,218.79-218.76-219.75-217.49.88-215.74.09-219.11,219-.38m46.32-112.08-46.51.08-219,.38-111.76.19,0,111.76-.09,218.91-.88,215.53-.19,47,33.4,33.06,139.73,138.29-139.17,139.15-32.79,32.79,0,46.37-.08,219v.33l.53,217.49.28,111.72h376.45l32.81-32.8,247-247,247,247,32.48,32.47,45.92.33,218.79,1.56,112.75.81.05-112.76.09-219V4551l-.09-225.47,0-47.37-34-33L5474,4114.63,5607.4,3986l34.06-32.84.21-47.31,1-225.37v-.34l.28-219.31.15-112.15h-377.9l-32.81,32.81-246.72,246.72-246.9-246.9-32.88-32.89Z" transform="translate(-97.02 -3345.98)"/><line class="cls-3" x1="2677.23" y1="2819.67" x2="2677.23" y2="1729.14"/><path class="cls-3" d="M2774.25,5075.11" transform="translate(-97.02 -3345.98)"/><polygon class="cls-4" points="1202.8 2145.54 1202.8 2145.54 370 2145.54 370 1986.48 1202.8 1986.48 1202.8 1729.14 112.65 1729.14 112.65 1986.48 112.66 1986.48 112.66 2145.54 112.65 2145.54 112.65 2402.88 112.66 2402.88 112.66 2402.89 370 2402.89 370 2402.88 945.47 2402.88 945.47 2561.95 112.65 2561.95 112.65 2819.29 945.47 2819.29 945.47 2819.29 1202.81 2819.29 1202.81 2145.54 1202.8 2145.54"/><polygon class="cls-5" points="112.65 2819.29 331.05 3037.69 1368.93 3037.69 1202.81 2819.43 112.65 2819.29"/><polygon class="cls-5" points="370 1985.83 370 2145.03 1202.66 2146.01 1247.03 2203.34 1368.05 2203.34 1202.81 1985.96 370 1985.83"/><polygon class="cls-5" points="112.65 2402.89 271.32 2561.56 945.47 2561.95 945.47 2403.02 112.65 2402.89"/><polygon class="cls-6" points="1202.94 1729.14 1368.05 1945.77 1368.05 2203.34 1202.8 1986.58 1202.94 1729.14"/><polygon class="cls-6" points="1202.8 2145.55 1370.19 2364.32 1368.93 3037.31 1202.81 2819.67 1202.8 2145.55"/><polygon class="cls-7" points="3831.91 1729.14 3831.91 2561.95 3256.44 2561.95 3256.44 1729.14 2999.09 1729.14 2999.09 2561.95 2999.09 2819.29 3256.44 2819.29 3831.91 2819.29 4089.25 2819.29 4089.25 2561.95 4089.25 1729.14 3831.91 1729.14"/><polygon class="cls-5" points="2998.33 2819.29 3083.66 3037.35 4123.53 3037.35 4089.25 2819.29 2998.33 2819.29"/><polygon class="cls-6" points="4089.25 1729.14 4125.38 2011.27 4123.53 3036.98 4089.25 2819.67 4089.25 1729.14"/><polygon class="cls-6" points="3256.45 1729.14 3318.13 1947.38 3318.13 2561.95 3256.46 2561.95 3256.45 1729.14"/><polygon class="cls-5" points="1811.67 797.13 2013.02 1015.18 2768.59 1015.18 2637.74 797.27 1811.67 797.13"/><polygon class="cls-5" points="1553.38 1204.9 1770.82 1422.95 2012.56 1422.95 1811.34 1205.04 1553.38 1204.9"/><polygon class="cls-5" points="1808.71 373.2 1935.46 540.15 2392.54 538.68 2392.54 373.33 1808.71 373.2"/><polygon class="cls-6" points="1810.86 795.86 2012.56 1013.64 2012.56 1423.17 1811.97 1205.04 1810.86 795.86"/><polygon class="cls-6" points="2637.25 114.75 2768.59 332.53 2768.59 1015.18 2637.12 797.27 2637.25 114.75"/><polygon class="cls-6" points="1810.86 373.34 1935.46 538.84 1920.13 538.68 1810.73 538.68 1810.86 373.34"/><path class="cls-8" d="M2734.48,4143.24V3460.72H1650.41V4551H1909V4143.24h825.49Zm-244.91-423.93v165.35H1909V3719.31Z" transform="translate(-97.02 -3345.98)"/><polygon class="cls-5" points="2988.15 373.2 3090.88 592.03 4124.68 591.1 4078.33 373.33 2988.15 373.2"/><polygon class="cls-5" points="2988.15 1204.9 3115.75 1422.8 4125.52 1422.8 4078.33 1205.04 2988.15 1204.9"/><polygon class="cls-6" points="4078.3 114.94 4124.68 331.95 4124.68 590.48 4078.17 373.33 4078.3 114.94"/><polygon class="cls-6" points="4078.17 946.45 4125.52 1166.75 4125.52 1422.8 4078.17 1205.04 4078.17 946.45"/><polygon class="cls-6" points="3666.95 373.33 3733.45 590.48 3733.45 946.45 3667.91 946.45 3666.95 373.33"/><polygon class="cls-9" points="4053.38 1205.04 4078.17 1205.04 4078.17 1180.17 4078.17 971.32 4078.17 946.45 4078.17 946.45 3859.11 946.45 3667.91 946.45 3667.91 373.33 4053.3 373.33 4078.17 373.33 4078.17 348.47 4078.17 139.61 4078.17 114.75 4053.38 114.75 3012.75 114.75 2987.88 114.75 2987.88 139.61 2987.88 348.47 2987.88 373.33 3012.75 373.33 3409.32 373.33 3409.32 455.16 3409.32 946.45 3012.75 946.45 2987.88 946.45 2987.88 971.32 2987.88 1180.17 2987.88 1205.04 3012.75 1205.04 4053.38 1205.04"/><polygon class="cls-10" points="6766.27 1205.04 6791.11 1205.04 6791.11 1179.21 6791.11 971.21 6791.11 946.45 6766.23 946.45 5959.41 946.45 5959.41 879.29 5959.41 797.27 6766.23 797.27 6791.11 797.27 6791.11 770.28 6791.11 562.21 6791.11 537.44 6766.23 537.44 5959.41 537.44 5959.41 455.38 5959.41 373.33 6766.23 373.33 6791.11 373.33 6791.11 348.47 6791.11 139.61 6791.11 114.75 6766.27 114.75 5726.92 114.75 5702.07 114.75 5702.07 139.61 5702.07 1180.17 5702.07 1205.04 5726.92 1205.04 6766.27 1205.04"/><polygon class="cls-6" points="5701.94 114.75 5652.08 380.24 5650.82 1423.12 5702.07 1205.04 5701.94 114.75"/><polygon class="cls-5" points="5650.82 1423.54 5702.07 1204.97 6791.11 1204.97 6663.94 1423.67 5650.82 1423.54"/><polygon class="cls-5" points="5959.41 946.45 5959.41 797.27 6791.11 797.27 6713.81 946.34 5959.41 946.45"/><polygon class="cls-5" points="5959.41 537.44 5959.41 373.33 6791.11 373.33 6714.76 537.18 5959.41 537.44"/><polygon class="cls-11" points="8181.58 2819.43 8206.43 2819.43 8206.43 2793.59 8206.43 2585.6 8206.43 2560.84 8181.55 2560.84 7374.73 2560.84 7374.73 2493.68 7374.73 2411.66 8181.55 2411.66 8206.43 2411.66 8206.43 2384.67 8206.43 2176.6 8206.43 2151.83 8181.55 2151.83 7374.73 2151.83 7374.73 2069.78 7374.73 1987.72 8181.55 1987.72 8206.43 1987.72 8206.43 1962.86 8206.43 1754 8206.43 1729.14 8181.58 1729.14 7142.24 1729.14 7117.39 1729.14 7117.39 1754 7117.39 2794.56 7117.39 2819.43 7142.24 2819.43 8181.58 2819.43"/><polygon class="cls-6" points="7117.25 1729.14 7007.75 1986.48 7007.8 3037.18 7117.39 2819.43 7117.25 1729.14"/><polygon class="cls-5" points="7007.8 3037.59 7117.39 2819.36 8206.43 2819.36 8041.18 3037.73 7007.8 3037.59"/><polygon class="cls-5" points="7374.73 2560.84 7374.73 2411.66 8206.43 2411.66 8102.45 2561.98 7374.73 2560.84"/><polygon class="cls-5" points="7374.73 2153.51 7374.73 1987.72 8206.43 1987.72 8100.71 2153.51 7374.73 2153.51"/><polygon class="cls-12" points="8244.21 1180.17 8244.21 971.32 8244.21 946.45 8219.33 946.45 7412.51 946.45 7412.51 139.61 7412.51 114.75 7387.77 114.75 7178.8 114.75 7153.92 114.75 7153.92 139.61 7153.92 1180.17 7153.92 1205.04 7178.8 1205.04 8219.33 1205.04 8244.21 1205.04 8244.21 1180.17"/><polygon class="cls-6" points="7153.92 114.75 7008.88 401.95 7008.88 1422.25 7155.16 1205.04 7153.92 114.75"/><polygon class="cls-5" points="7008.88 1422.66 7155.16 1204.97 8244.21 1204.97 8027 1422.79 7008.88 1422.66"/><polygon class="cls-6" points="7701.63 114.75 7565.94 328.24 7565.94 835.95 7701.62 643.12 7701.63 114.75"/><polygon class="cls-5" points="7565.94 836.18 7701.62 643.12 8242.97 643.12 8077.97 836.31 7565.94 836.18"/><polygon class="cls-6" points="5699 1729.14 5652.96 1965.38 5652.96 3037.18 5699.14 2819.43 5699 1729.14"/><polygon class="cls-6" points="6531.82 2605.51 6443.55 2821.75 6445.48 3037.18 6531.95 2819.43 6531.82 2605.51"/><polygon class="cls-5" points="6445.48 3037.59 6531.95 2819.36 6789.29 2819.36 6693.21 3037.73 6445.48 3037.59"/><polygon class="cls-5" points="6422.55 2512.15 6531.95 2402.89 6789.29 2402.89 6744.15 2512.29 6422.55 2512.15"/><polygon class="cls-5" points="5956.48 2619.88 5956.48 2402.89 6222.21 2402.89 6134.43 2619.88 5956.48 2619.88"/><polygon class="cls-5" points="5956.48 2146.01 5956.48 1986.48 6531.95 1986.48 6472.05 2147.47 5956.48 2146.01"/><polygon class="cls-5" points="5652.96 3037.59 5699.14 2819.36 5956.48 2819.36 5900.11 3037.73 5652.96 3037.59"/><path class="cls-13" d="M6886.32,5075.12H5796.16V6165.26h257.35v-416.4h265.87L6629,5951.48v213.78h257.34V5881.57l-202.77-132.71h202.78V5620.19h0Zm-832.81,257.33H6629v159.07H6053.51Z" transform="translate(-97.02 -3345.98)"/><polygon class="cls-5" points="6134.43 2619.88 6443.55 2821.75 6531.94 2605.51 6222.21 2402.89 6134.43 2619.88"/><polygon class="cls-6" points="6472.05 2147.47 6472.05 2145.54 6531.95 2145.54 6531.95 1986.48 6472.05 2147.47"/><polygon class="cls-6" points="8602.83 1729.14 8425.3 1986.48 8425.35 3037.18 8602.97 2819.43 8602.83 1729.14"/><polygon class="cls-6" points="9437.61 2097.13 9250.89 2316.38 9250.89 2670.69 9437.61 2444.88 9437.61 2097.13"/><polygon class="cls-5" points="8425.35 3037.59 8602.97 2819.36 9435.77 2819.36 9218.02 3037.73 8425.35 3037.59"/><polygon class="cls-5" points="8860.31 2204.62 8860.31 1986.48 9326.37 1986.48 9145.93 2204.53 8860.31 2204.62"/><path class="cls-14" d="M9534.63,5075.11H8701.82V6165.26h832.81L9792,5907.92V5332.45Zm-575.46,257.34H9423.4l111.23,111.24v347.17l-109.26,117.06h-466.2Z" transform="translate(-97.02 -3345.98)"/><polygon class="cls-5" points="9437.61 2097.72 9250.89 2316.38 9145.93 2204.53 9326.37 1986.48 9437.61 2097.72"/><path class="cls-15" d="M5273.3,5075.11H4440.5V6165.26l257.34,108.94V5857.91H5273.3V6274.2l257.35-108.94V5075.11Zm0,416.52H4697.84V5332.45H5273.3Z" transform="translate(-97.02 -3345.98)"/><polygon class="cls-5" points="4612.47 3037.14 4366.82 3037.14 4343.47 2819.29 4600.81 2819.29 4612.47 3037.14"/><rect class="cls-5" x="4600.81" y="1986.72" width="575.47" height="158.94"/><polygon class="cls-5" points="5176.28 2620.86 4612.47 2620.86 4600.81 2403.01 5176.28 2403.01 5176.28 2620.86"/><polygon class="cls-5" points="5404.13 3037.76 5156.28 3037.76 5176.28 2819.29 5433.62 2819.29 5404.13 3037.76"/><polygon class="cls-16" points="5163.87 716.41 5107.45 659.99 5433.53 333.94 5433.53 227.78 5433.53 114.94 5214.74 114.94 4888.55 441.11 4562.35 114.94 4343.56 114.94 4343.56 227.78 4343.56 333.94 4669.64 659.99 4535.81 793.82 4343.56 986.04 4343.56 1098.88 4343.56 1205.04 4562.35 1205.04 4888.55 878.87 5214.74 1205.04 5433.53 1205.04 5433.53 1098.88 5433.53 986.04 5163.87 716.41"/><polygon class="cls-5" points="4562.35 1422.53 4344.01 1422.53 4343.47 1205.04 4562.35 1205.04 4562.35 1422.53"/><polygon class="cls-5" points="5433.53 1422.53 5214.74 1422.53 5214.74 1205.04 5433.62 1205.04 5433.53 1422.53"/><polygon class="cls-6" points="4562.35 1205.04 4562.35 1422.53 4888.55 1096.33 4888.55 878.87 4562.35 1205.04"/><polygon class="cls-6" points="5107.45 659.99 5215.86 768.39 5431.23 560.84 5433.62 334.05 5107.45 659.99"/><path class="cls-6" d="M4766.67,4006l-107.3,107.29c-1.06,1.06-220.14-216.57-219.75-217.49l.88-215.74Z" transform="translate(-97.02 -3345.98)"/><polygon class="cls-6" points="4888.55 878.87 5214.74 1205.04 5214.74 1422.53 4888.55 1096.33 4888.55 878.87"/><polygon class="cls-5" points="1587.08 2819.29 1739.42 3038.17 2779.97 3038.17 2677.23 2819.43 1587.08 2819.29"/><path class="cls-17" d="M2516.91,5075.11H1684.1V6165.26h257.34l159.07-.58,0,159.68,257.31,0V6165.26h416.4V5075.11Zm0,832.81H2357.85V5748.86H2100.51v159.06H1941.44V5332.45h575.47Z" transform="translate(-97.02 -3345.98)"/><polygon class="cls-5" points="1844.42 1986.48 1954.72 2207.09 2419.89 2207.09 2419.89 1986.61 1844.42 1986.48"/><polygon class="cls-6" points="2677.23 1729.14 2779.97 1846.83 2779.97 3037.8 2677.23 2819.67 2677.23 1729.14"/><polygon class="cls-6" points="2260.96 2819.73 2385.78 3037.73 2385.78 3197.24 2260.96 2979.11 2260.96 2819.73"/><polygon class="cls-6" points="1844.42 1986.48 1954.72 2207.09 1954.72 2403.24 1954.09 2562.53 2002.21 2561.95 1844.42 2561.95 1844.42 1986.48"/><polygon class="cls-6" points="2260.89 2402.89 2315.73 2512.42 2315.6 2561.95 2260.9 2561.95 2260.89 2402.89"/><polygon class="cls-5" points="2003.49 2978.36 2145.87 3197.24 2385.78 3197.24 2260.96 2978.49 2003.49 2978.36"/><rect class="cls-18" x="7701.63" y="114.75" width="541.34" height="528.37"/><polyline class="cls-6" points="4612.47 3037.14 4612.47 2620.86 4600.81 2403.01 4600.81 2819.29 4612.47 3037.14 4612.47 3037.14"/><polygon class="cls-6" points="5156.28 3037.76 5156.28 2620.62 5176.28 2403.01 5176.28 2819.29 5156.28 3037.76"/><polygon class="cls-6" points="5156.28 2145.54 5176.28 1986.72 5176.28 2145.66 5156.28 2145.54"/><polygon class="cls-6" points="4600.81 1986.72 4612.47 2145.66 4600.81 2145.66 4600.81 1986.72"/><rect class="cls-1" x="8930.56" y="2273.61" width="238.68" height="238.68"/><polygon class="cls-2" points="2637.45 114.75 1553.38 114.75 1619.61 180.98 2571.22 180.98 2637.45 114.75"/><polygon class="cls-2" points="1202.8 1729.14 112.65 1729.14 178.88 1795.37 1136.57 1795.37 1202.8 1729.14"/><polygon class="cls-2" points="945.47 2561.95 112.65 2561.95 178.88 2628.18 1011.7 2628.18 945.47 2561.95"/><polygon class="cls-2" points="4534.58 2211.89 5242.51 2211.89 5176.28 2145.66 4600.81 2145.66 4534.58 2211.89"/><polygon class="cls-2" points="5890.25 2211.89 6598.18 2211.89 6531.95 2145.66 5956.48 2145.66 5890.25 2211.89"/><polygon class="cls-2" points="3190.21 2628.18 3898.13 2628.18 3831.91 2561.95 3256.44 2561.95 3190.21 2628.18"/><polygon class="cls-2" points="7308.5 2627.07 8140.2 2627.07 8206.43 2560.84 7374.73 2560.84 7308.5 2627.07"/><polygon class="cls-2" points="7308.5 2218.05 8140.2 2218.05 8206.43 2151.83 7374.73 2151.83 7308.5 2218.05"/><polygon class="cls-2" points="5893.19 1012.68 6724.89 1012.68 6791.11 946.45 5959.41 946.45 5893.19 1012.68"/><polygon class="cls-2" points="7345.65 1012.68 8177.36 1012.68 8243.58 946.45 7411.88 946.45 7345.65 1012.68"/><polygon class="cls-2" points="5893.19 603.67 6724.89 603.67 6791.11 537.44 5959.41 537.44 5893.19 603.67"/><polygon class="cls-2" points="1745.74 604.91 2458.21 604.91 2391.98 538.68 1811.97 538.68 1745.74 604.91"/><polygon class="cls-2" points="3054.11 1012.68 3475.55 1012.68 3409.32 946.45 2987.88 946.45 3054.11 1012.68"/><polygon class="cls-2" points="4012.26 1012.68 3601.68 1012.68 3667.91 946.45 4078.49 946.45 4012.26 1012.68"/><polygon class="cls-2" points="2677.23 1729.14 1587.08 1729.14 1653.31 1795.37 2611 1795.37 2677.23 1729.14"/><polygon class="cls-2" points="3256.45 1729.14 2996.56 1729.14 3062.79 1795.37 3190.22 1795.37 3256.45 1729.14"/><polygon class="cls-2" points="2260.83 2402.89 2002.21 2402.89 2068.11 2469.11 2194.92 2469.11 2260.83 2402.89"/><polygon class="cls-2" points="2068.11 2628.18 1778.51 2628.18 1844.42 2561.95 2002.21 2561.95 2068.11 2628.18"/><polygon class="cls-2" points="2484.66 2628.18 2195.06 2628.18 2260.96 2561.95 2418.75 2561.95 2484.66 2628.18"/><polygon class="cls-2" points="9355.98 2628.18 8796.24 2628.18 8862.14 2561.95 9328.34 2561.95 9355.98 2628.18"/><polygon class="cls-2" points="4089.25 1729.14 3831.91 1729.14 3898.14 1795.37 4023.02 1795.37 4089.25 1729.14"/><polygon class="cls-2" points="5433.62 1729.14 4343.47 1729.14 4409.7 1795.37 5367.39 1795.37 5433.62 1729.14"/><polygon class="cls-2" points="6788.73 1729.14 5698.59 1729.14 5764.81 1795.37 6722.51 1795.37 6788.73 1729.14"/><polygon class="cls-2" points="8207.9 1729.14 7117.75 1729.14 7183.98 1795.37 8141.67 1795.37 8207.9 1729.14"/><polygon class="cls-2" points="4078.17 114.75 2987.88 114.75 3054.11 180.98 4011.94 180.98 4078.17 114.75"/><polygon class="cls-2" points="4562.35 114.75 4343.4 114.75 4409.63 180.98 4508.55 180.98 4562.35 114.75"/><polygon class="cls-2" points="5433.69 114.75 5214.74 114.75 5268.54 180.98 5367.46 180.98 5433.69 114.75"/><polygon class="cls-2" points="6791.74 114.75 5701.45 114.75 5767.68 180.98 6725.51 180.98 6791.74 114.75"/><polygon class="cls-2" points="7412.51 114.75 7153.92 114.75 7220.15 180.98 7346.28 180.98 7412.51 114.75"/><polygon class="cls-2" points="8242.97 114.75 7701.63 114.75 7769.06 182.18 8175.53 182.18 8242.97 114.75"/><polygon class="cls-2" points="4888.55 441.11 5214.74 114.75 5268.54 180.98 4889.08 561.51 4508.55 180.98 4562.35 114.75 4888.55 441.11"/><polygon class="cls-2" points="9694.95 1986.48 9628.72 2015.11 9408.98 1795.37 9437.61 1729.14 9694.95 1986.48"/><polygon class="cls-2" points="370 2145.55 303.77 2211.77 1024.99 2211.77 1024.99 2211.77 1136.94 2211.77 1202.8 2145.55 370 2145.55"/><polygon class="cls-2" points="9328.34 2561.95 9355.98 2628.18 9507.49 2476.67 9437.61 2444.88 9328.34 2561.95"/><polygon class="cls-2" points="9437.61 1729.14 8604.8 1729.14 8671.03 1795.37 9408.98 1795.37 9437.61 1729.14"/></svg>