<svg xmlns="http://www.w3.org/2000/svg" xmlns:xlink="http://www.w3.org/1999/xlink" width="1000" height="1000" viewBox="0 0 1000 1000"><defs><linearGradient id="a" x1="1" x2="0" y2="1" gradientUnits="objectBoundingBox"><stop offset="0" stop-color="#781247"/><stop offset="1" stop-color="#553144"/></linearGradient><clipPath id="c"><rect width="1000" height="1000"/></clipPath></defs><g id="b" clip-path="url(#c)"><circle cx="500" cy="500" r="500" fill="url(#a)"/><g transform="translate(-22.06 213.317)"><path d="M372.626,24.386C264.3,372.375,209.858,552.543,200.316,594.638c-3.929,15.716-9.542,30.87-13.471,33.115-3.368,2.245-31.992,10.664-63.424,18.522-48.269,12.348-57.811,12.909-57.811,6.174,0-8.419,58.933-222.263,95.416-345.743,11.787-40.412,30.87-104.4,42.1-143.124S235.115,56.94,249.147,12.039s26.38-84.752,27.5-88.681c1.123-5.051,19.645-6.735,65.669-6.735H406.3ZM949.052-70.468c8.419,5.613,19.644,19.644,24.135,30.87,10.1,23.573,7.3,38.728-21.328,132.46l-17.4,55-62.3-3.929c-34.8-2.245-63.423-4.49-63.985-5.051s6.174-24.7,15.154-53.882c9.542-28.625,16.277-53.321,15.154-53.882-.561-.561-38.728-2.245-85.313-3.368L668.978,26.07,647.649,87.81c-11.225,33.676-20.206,69.036-19.645,78.017,2.245,24.7,23.012,36.483,77.455,43.218,107.2,12.909,168.381,67.914,161.646,144.247C864.3,383.6,823.888,522.8,809.857,550.3c-10.664,20.767-52.76,49.392-78.578,53.882-9.542,1.684-84.752,1.122-167.259-1.122l-149.859-4.49L397.322,582.29c-21.89-21.328-21.89-34.237,0-106.641,9.542-30.87,19.083-62.862,21.328-70.72,3.929-13.47,6.735-14.032,67.353-19.083,34.238-2.806,63.985-3.368,65.669-1.684,2.245,1.684-3.929,25.819-13.471,53.882L521.363,488l39.85,3.368c22.451,1.684,60.617,3.929,85.874,5.613l45.463,2.245,21.328-67.353c30.309-95.416,23.573-107.764-64.546-117.306-53.882-6.174-84.752-16.838-115.622-40.412-29.186-21.89-41.534-44.9-41.534-78.017,0-25.818,54.443-197.006,70.159-221.141,5.051-7.3,18.522-20.206,30.87-28.064,43.218-28.625,53.882-30.309,202.058-28.625C918.182-80.571,935.02-79.449,949.052-70.468Z" transform="translate(0 0)" fill="#fff"/></g></g></svg>