<svg xmlns="http://www.w3.org/2000/svg" xmlns:xlink="http://www.w3.org/1999/xlink" width="684" height="684" viewBox="0 0 684 684"><defs><clipPath id="a"><path d="M0-3333.325H949.084v790.9H0Z" transform="translate(0 3333.325)"/></clipPath><clipPath id="c"><rect width="684" height="684"/></clipPath></defs><g id="b" clip-path="url(#c)"><g transform="translate(-136.542 3279.874)"><g transform="translate(0 -3333.325)"><g clip-path="url(#a)"><g transform="translate(441.2 143.191)"><path d="M-252.687-21.771a156.565,156.565,0,0,1,33.939-6.773C-212.781-13.055-204,1.191-194.226,14.541a252.034,252.034,0,0,0,56.42,54.574c24.726,17.516,52.352,30.767,81.145,40.109a398.383,398.383,0,0,0,81.176,16.86c-.331,48.449-20.356,95.882-52.872,131.531A219.6,219.6,0,0,1-80.5,300.34a197.913,197.913,0,0,1-96.2,27.114c-3.405-32-10.1-63.758-21.283-93.975A295.373,295.373,0,0,0-233.687,165a251.156,251.156,0,0,0-54.454-56.277c-13.319-9.877-27.634-18.646-43.153-24.62a153.436,153.436,0,0,1,10.638-44.894C-314.592,24.41-305.8,10.428-293.528,0c11.828-10.125,26.059-17.116,40.84-21.772" transform="translate(331.294 28.544)" fill="#4c8fcc"/></g><g transform="translate(585.071 163.122)"><path d="M-38.6-14.929c6.592-6.11,17.817-6.238,24.432-.105C-3.971-4.894,6.162,5.307,16.355,15.455a18.427,18.427,0,0,1,2.825,21.4c-2.87,4.882-7.534,8.325-11.308,12.461A328.515,328.515,0,0,1-25.864,23.049C-31.28,17.647-37.353,12.9-42.242,6.979c-2.7-3.4-6.464-5.952-8.37-9.952C-46.589-6.943-42.649-11-38.6-14.929" transform="translate(50.612 19.573)" fill="#062f4c"/></g><g transform="translate(140.2 286.882)"><path d="M-1037.531-96.944a7.064,7.064,0,0,0-3.917,1.951Q-1180.2,43.88-1319.05,182.655c-2.132,2.019-4.663,4.159-4.656,7.383-.4,3.917,2.742,6.72,5.5,8.95,3.126,2.177,7.767,1.333,10.276-1.432q139.382-139.37,278.747-278.747c3.4-2.863,3.872-8.611.61-11.737-2.162-2.622-5.394-4.874-8.958-4.016m-314.547,299.352q164.751-164.751,329.5-329.509c11.662,9.455,21.931,20.507,31.709,31.86,7.361,8.483,13.787,17.712,20.484,26.707q-164.514,164.469-329,328.959c-6.524,6.954-18.488,7.466-25.471.934q-15.267-15.256-30.527-30.527c-5.221-5.3-6.306-13.922-3.126-20.552,1.446-3.134,4.015-5.5,6.426-7.873" transform="translate(1360.289 127.101)" fill="#062f4c"/></g><g transform="translate(578.268 179.722)"><path d="M0-21.07c2.486-1.951,4.52-4.392,6.8-6.554,1.906,4,5.673,6.554,8.37,9.952C20.062-11.751,26.134-7,31.551-1.6A328.517,328.517,0,0,0,65.287,24.66c-2.968,2.93-5.906,5.906-8.867,8.845A252.02,252.02,0,0,1,0-21.07" transform="translate(0 27.624)" fill="#081d2d"/></g><g transform="translate(477.912 280.455)"><path d="M-20.707,0A251.156,251.156,0,0,1,33.747,56.277c-2.893,2.908-5.808,5.8-8.7,8.716-6.7-9-13.124-18.224-20.484-26.707-9.779-11.353-20.047-22.405-31.71-31.86C-25,4.287-22.861,2.14-20.707,0" transform="translate(27.148)" fill="#081d2d"/></g><g transform="translate(595.792 297.821)"><path d="M-646.831,0c6.773.738,13.561,1.19,20.349,1.77,2.8,24.831-.362,50.152-7.654,73.989-11.723,38.339-35.6,72.4-66.063,98.232-32.094,27.535-72.873,45.059-115.137,48.125a150.483,150.483,0,0,1-31.092-.565c-.271-6.743-.972-13.463-1.62-20.183a197.919,197.919,0,0,0,96.2-27.114A219.6,219.6,0,0,0-699.7,131.531C-667.187,95.882-647.162,48.449-646.831,0" transform="translate(848.049)" fill="#6fc4ee"/></g><g transform="translate(176.748 316.853)"><path d="M-920.045-.6c3.563-.859,6.8,1.394,8.957,4.016,3.262,3.126,2.787,8.875-.61,11.737q-139.37,139.381-278.747,278.747c-2.508,2.765-7.15,3.609-10.276,1.432-2.757-2.23-5.9-5.033-5.5-8.95-.008-3.224,2.524-5.364,4.656-7.383q138.771-138.85,277.6-277.647A7.064,7.064,0,0,1-920.045-.6" transform="translate(1206.255 0.783)" fill="#105677"/></g></g></g></g></g></svg>