<svg xmlns="http://www.w3.org/2000/svg" xmlns:xlink="http://www.w3.org/1999/xlink" width="684" height="684" viewBox="0 0 684 684"><defs><clipPath id="b"><rect width="684" height="684"/></clipPath></defs><g id="a" clip-path="url(#b)"><g transform="translate(0 29)"><g transform="translate(-160 -190)"><rect width="57" height="57" transform="translate(331 304)" fill="#2c2c2c"/><rect width="57" height="57" transform="translate(388 247)" fill="#2c2c2c"/><rect width="114" height="57" transform="translate(445 190)" fill="#2c2c2c"/><rect width="57" height="57" transform="translate(559 247)" fill="#2c2c2c"/><rect width="57" height="57" transform="translate(616 304)" fill="#2c2c2c"/><rect width="57" height="57" transform="translate(673 361)" fill="#2c2c2c"/><rect width="57" height="57" transform="translate(730 418)" fill="#2c2c2c"/><rect width="57" height="171" transform="translate(787 475)" fill="#2c2c2c"/><rect width="57" height="57" transform="translate(730 646)" fill="#2c2c2c"/><rect width="114" height="57" transform="translate(616 703)" fill="#2c2c2c"/><rect width="228" height="57" transform="translate(388 760)" fill="#2c2c2c"/><rect width="57" height="57" transform="translate(217 646)" fill="#2c2c2c"/><rect width="114" height="57" transform="translate(274 703)" fill="#2c2c2c"/><rect width="57" height="57" transform="translate(274 361)" fill="#2c2c2c"/><rect width="57" height="57" transform="translate(217 418)" fill="#2c2c2c"/><rect width="57" height="171" transform="translate(160 475)" fill="#2c2c2c"/></g><g transform="translate(-160 -190)"><rect width="228" height="57" transform="translate(388 703)" fill="#484847"/><rect width="399" height="57" transform="translate(616 304) rotate(90)" fill="#484847"/><rect width="228" height="57" transform="translate(673 475) rotate(90)" fill="#484847"/><rect width="171" height="57" transform="translate(787 475) rotate(90)" fill="#484847"/><rect width="57" height="57" transform="translate(730 589) rotate(90)" fill="#484847"/><rect width="114" height="57" transform="translate(730 418) rotate(90)" fill="#484847"/><rect width="57" height="57" transform="translate(673 361) rotate(90)" fill="#484847"/><rect width="114" height="57" transform="translate(274 646)" fill="#474747"/><rect width="57" height="57" transform="translate(217 589)" fill="#474747"/><rect width="114" height="171" transform="translate(388 532)" fill="#707070"/><rect width="57" height="114" transform="translate(502 532)" fill="#707070"/><rect width="57" height="285" transform="translate(445 247)" fill="#707070"/><rect width="57" height="57" transform="translate(502 247)" fill="#707070"/><rect width="57" height="228" transform="translate(331 361)" fill="#707070"/><rect width="57" height="114" transform="translate(388 361)" fill="#707070"/><rect width="57" height="57" transform="translate(388 304)" fill="#888788"/><rect width="57" height="57" transform="translate(502 475)" fill="#888788"/><rect width="57" height="57" transform="translate(331 589)" fill="#888788"/><rect width="57" height="114" transform="translate(502 361)" fill="#707070"/><rect width="57" height="114" transform="translate(217 475)" fill="#707070"/><rect width="57" height="114" transform="translate(274 418)" fill="#707070"/><rect width="57" height="57" transform="translate(274 589)" fill="#707070"/><rect width="57" height="57" transform="translate(502 304)" fill="#525252"/><rect width="57" height="57" transform="translate(388 475)" fill="#525252"/><rect width="57" height="57" transform="translate(274 532)" fill="#525252"/><rect width="57" height="57" transform="translate(502 646)" fill="#353535"/><rect width="57" height="57" transform="translate(673 532)" fill="#353535"/><rect width="57" height="57" transform="translate(616 418)" fill="#353535"/><rect width="57" height="57" transform="translate(673 646)" fill="#565656"/></g></g></g></svg>