<svg xmlns="http://www.w3.org/2000/svg" xmlns:xlink="http://www.w3.org/1999/xlink" width="684" height="684" viewBox="0 0 684 684"><defs><clipPath id="a"><path d="M0-3333.325H943.2v786H0Z" transform="translate(0 3337.325)"/></clipPath><clipPath id="c"><rect width="684" height="684"/></clipPath></defs><g id="b" clip-path="url(#c)"><g transform="translate(-102.6 3289.325)"><g transform="translate(-39 -3354.325)"><g transform="translate(0 0)" clip-path="url(#a)"><g transform="translate(143.363 74.946)"><path d="M-1049.663-32.3q7.8-5.115,15.753-9.966c24.829,15.18,48.413,32.29,71.453,50.035A1025.351,1025.351,0,0,1-832.172,127.975c35.021,38.627,66.889,80.22,93.974,124.808,16.583,27.454,31.611,55.927,43.863,85.584q-5.488,1.675-10.8,3.863l-.075-.091c-3.5-4.082-7.59-7.612-10.977-11.792-7.092-7.235-14.282-14.38-21.389-21.592-6.2-6.368-12.765-12.4-18.536-19.17-11.43-11.46-22.8-22.98-34.252-34.418-7.114-8.179-15.111-15.527-22.626-23.328-5.983-6.126-12.169-12.056-18.084-18.235-3.825-4.715-8.389-8.714-12.554-13.1-8.7-8.654-17.261-17.443-25.96-26.089-7.522-8.789-16.243-16.432-24.112-24.889-1.471-1.411-2.784-3.387-4.995-3.561-7.024-10.7-18.333-18.024-30.615-21.223A967.146,967.146,0,0,0-1033.9,38.354a972.3,972.3,0,0,0-105.162,86.9c-8.389.008-16.779-.008-25.176.008q.011,12.528,0,25.048a803.336,803.336,0,0,0-63.63,72.97,700.642,700.642,0,0,0-54.561,81.827,811.7,811.7,0,0,1,118.191,75.543c.03,8.314-.038,16.628.03,24.942l.234.309c6.322,7.59,13.648,14.221,20.476,21.336,4.753,4.836,9.612,9.559,14.327,14.425,5.523,6.518,11.852,12.275,17.8,18.393,6.262,6.533,12.969,12.645,18.854,19.54,9.167,9.212,18.288,18.491,27.515,27.643,9.166,10.389,19.336,19.842,28.978,29.786,4.316,3.983,7.9,8.668,12.147,12.72q11.8,11.962,23.682,23.848-17.88,24.15-33.7,49.733c-52.766-85.931-124.891-159.5-208.249-216.043a705.309,705.309,0,0,0-80.386-47.047,491.981,491.981,0,0,0-51.008-22.128c31.249-73.453,76.335-140.447,128.995-200.207a1000.415,1000.415,0,0,1,94.781-93.732A984.5,984.5,0,0,1-1049.663-32.3" transform="translate(1373.546 42.265)" fill="#062f4c"/></g><g transform="translate(377.844 155.566)"><path d="M0-281.622a972.316,972.316,0,0,1,105.162-86.9,967.233,967.233,0,0,1,104.589,86.391c-11-2.776-22.483-3.055-33.724-2.022-12.954,1.351-26.066,6-35.384,15.391-10.381,10.11-15.549,24.4-17.39,38.514Q109.99-243.406,96.833-256.68a15.486,15.486,0,0,0-3.267-2.173,50.706,50.706,0,0,0-24.089-18.076c-10.509-3.916-21.841-4.655-32.954-4.693Z" transform="translate(0 368.519)" fill="#4c8fcc"/></g><g transform="translate(234.477 267.518)"><path d="M-176.826-236.485a803.276,803.276,0,0,1,63.63-72.97q.023,115.169,0,230.339a811.72,811.72,0,0,0-118.191-75.542,700.622,700.622,0,0,1,54.561-81.827" transform="translate(231.387 309.455)" fill="#4c8fcc"/></g><g transform="translate(498.842 239.383)"><path d="M-63.669-51.669c9.317-9.393,22.43-14.04,35.384-15.391,11.241-1.034,22.724-.755,33.723,2.022,12.282,3.2,23.592,10.524,30.615,21.222A68.233,68.233,0,0,1,44.36-25.679c3.418,12.2,3.757,24.95,3.6,37.526-13.942.023-27.884-.015-41.826.023-.324-9.717,1.026-20.023-3.2-29.122-2.995-6.39-10.094-9.823-16.9-10.1-6.745-.453-14.168,1.358-18.6,6.79-4.021,4.987-4.836,11.633-5.206,17.812-.407,9.159,1.162,18.559,5.508,26.7A108.463,108.463,0,0,0-11.982,49.7c9.868,10.26,21.222,18.982,30.766,29.566a116.31,116.31,0,0,1,21.381,30.744c6.458,12.931,8.48,27.613,8.118,41.932-.287,10.094-1.645,20.249-5.077,29.785-3.644,9.966-9.785,19.193-18.341,25.583-7.9,6.013-17.511,9.385-27.243,10.932-15.579,2.12-32.034,1.524-46.677-4.67A52.009,52.009,0,0,1-74.744,189.5c-6.6-12.652-8.525-27.145-8.57-41.253.015-5.605,0-11.211.015-16.809,13.942-.015,27.884.007,41.834-.015.543,11.173-1.275,22.656,1.78,33.58,1.818,6.971,8.239,11.882,15.149,13.127,6.518,1.079,13.7.634,19.374-3.078,4.874-2.965,7.53-8.42,8.42-13.9,1.856-11.294.589-23.358-4.836-33.543A110.473,110.473,0,0,0-21.872,101.86C-32.306,91.139-44.249,81.973-54.125,70.709a113.586,113.586,0,0,1-20.589-30.7c-7.725-16.5-8.4-35.345-6.345-53.166,1.841-14.116,7.009-28.4,17.39-38.514" transform="translate(83.314 67.612)" fill="#feeeee"/></g><g transform="translate(352.667 242.463)"><path d="M-143.675-130.835v94.675c7.3-.008,14.591.015,21.886-.008,5.824-.091,12.011-2.067,15.768-6.737,3.908-5.432,4.376-12.426,4.594-18.9.008-13.829-.015-27.665.008-41.494-.151-7.431-.309-15.836-5.432-21.766-3.855-3.976-9.513-5.7-14.946-5.771q-10.943-.023-21.879,0M-188.006-171.2c8.4-.015,16.786,0,25.176-.008h36.523c11.113.038,22.445.777,32.954,4.692a50.707,50.707,0,0,1,24.09,18.077c8.442,12.29,11.535,27.416,11.965,42.113q.011,23.03-.008,46.066c-.543,15.089-3.765,30.8-13.052,43.064C-77.51-7.558-88.435-1.221-100,1.54c-14.267,3.734-29.107,2.135-43.667,2.467q-.034,52.724-.008,105.441c-4.383,0-8.759-.008-13.135.008-10.313-.023-20.626,0-30.932-.015l-.234-.309c-.068-8.314,0-16.628-.03-24.942q.011-115.17,0-230.34.023-12.527,0-25.047" transform="translate(188.008 171.205)" fill="#feeeee"/></g><g transform="translate(352.933 263.18)"><path d="M-859.73,0c2.211.174,3.523,2.15,4.994,3.561,7.869,8.457,16.59,16.1,24.112,24.889,8.7,8.646,17.261,17.435,25.96,26.089,4.165,4.383,8.729,8.382,12.554,13.1,5.915,6.179,12.1,12.109,18.084,18.235,7.514,7.8,15.512,15.149,22.626,23.328,11.453,11.437,22.822,22.957,34.252,34.418,5.772,6.767,12.335,12.8,18.537,19.17,7.107,7.213,14.3,14.357,21.389,21.592,3.387,4.18,7.477,7.71,10.977,11.792-32.667,13.2-63.977,29.589-93.981,48.028-77.655,47.877-146.581,110.134-201.006,183.42q-11.883-11.882-23.682-23.848c-4.248-4.051-7.831-8.737-12.147-12.72-9.642-9.944-19.812-19.4-28.978-29.786-9.227-9.151-18.348-18.431-27.514-27.643-5.885-6.9-12.592-13.007-18.854-19.54-5.945-6.119-12.275-11.875-17.8-18.393-4.715-4.866-9.574-9.589-14.327-14.425-6.828-7.115-14.153-13.746-20.476-21.336,10.306.015,20.619-.008,30.932.015a789.656,789.656,0,0,1,99.157,101.548,788.623,788.623,0,0,1,96.758-99.436c9.732-1.547,19.344-4.919,27.243-10.932,8.555-6.39,14.7-15.617,18.341-25.583,33.739-24.519,68.956-47.138,106.113-66.142-11.1-20.332-23.841-39.752-37.179-58.681a776.537,776.537,0,0,0-67.779-82.582A68.237,68.237,0,0,0-859.73,0" transform="translate(1125.008)" fill="#042338"/></g><g transform="translate(383.865 265.232)"><path d="M-283.724,0a15.482,15.482,0,0,1,3.267,2.173q13.173,13.252,26.421,26.436c-2.06,17.82-1.381,36.666,6.345,53.166a113.591,113.591,0,0,0,20.589,30.7c9.876,11.264,21.819,20.43,32.253,31.151a110.472,110.472,0,0,1,20.294,25.749c5.424,10.185,6.692,22.249,4.836,33.543-.89,5.485-3.546,10.939-8.42,13.9-5.673,3.712-12.856,4.157-19.374,3.078-6.911-1.245-13.331-6.156-15.149-13.127-3.055-10.924-1.237-22.407-1.78-33.58-13.95.023-27.892,0-41.834.015-.015,5.6,0,11.2-.015,16.809.045,14.108,1.969,28.6,8.57,41.253a52.011,52.011,0,0,0,25.689,24.067c14.644,6.194,31.1,6.79,46.677,4.67a788.612,788.612,0,0,0-96.758,99.436A789.681,789.681,0,0,0-371.27,257.892c4.376-.015,8.752-.008,13.135-.008q.011-52.724.008-105.441c14.561-.332,29.4,1.267,43.667-2.467,11.565-2.761,22.49-9.1,29.642-18.733,9.287-12.267,12.508-27.975,13.052-43.064q.057-23.03.008-46.067c-.43-14.7-3.523-29.823-11.965-42.113" transform="translate(371.27)" fill="#1c72ba"/></g><g transform="translate(544.318 279.575)"><path d="M-17.072-22.221c4.436-5.432,11.86-7.243,18.6-6.79,6.805.279,13.9,3.712,16.9,10.1,4.225,9.1,2.874,19.4,3.2,29.122,13.942-.038,27.884,0,41.827-.023.158-12.577-.181-25.327-3.6-37.526a776.54,776.54,0,0,1,67.779,82.582c13.339,18.929,26.081,38.348,37.179,58.681-37.156,19-72.374,41.623-106.113,66.142,3.433-9.536,4.791-19.691,5.077-29.785.362-14.319-1.66-29-8.118-41.932A116.31,116.31,0,0,0,34.283,77.607C24.74,67.022,13.385,58.3,3.517,48.04A108.457,108.457,0,0,1-16.77,22.291c-4.346-8.14-5.915-17.541-5.507-26.7.369-6.179,1.184-12.825,5.206-17.812" transform="translate(22.34 29.078)" fill="#1c72ba"/></g><g transform="translate(397 282.824)"><path d="M0-.028q10.943-.011,21.879,0c5.432.075,11.09,1.8,14.946,5.771,5.123,5.93,5.281,14.334,5.432,21.766-.023,13.829,0,27.665-.008,41.494-.219,6.473-.686,13.467-4.594,18.9-3.757,4.67-9.944,6.647-15.768,6.737-7.3.023-14.591,0-21.886.008Z" transform="translate(0 0.037)" fill="#1c72ba"/></g></g></g></g></g></svg>