<?xml version="1.0" standalone="no"?>
<!DOCTYPE svg PUBLIC "-//W3C//DTD SVG 20010904//EN"
        "http://www.w3.org/TR/2001/REC-SVG-20010904/DTD/svg10.dtd">
<svg version="1.0" xmlns="http://www.w3.org/2000/svg"
     width="200.000000pt" height="200.000000pt" viewBox="0 0 200.000000 200.000000"
     preserveAspectRatio="xMidYMid meet">

    <defs>
        <linearGradient id="background" x1="100%" x2="0%" y1="100%" y2="0%">
            <stop stop-color="#781247" offset="0%"/>
            <stop stop-color="#553144" offset="100%"/>
        </linearGradient>
    </defs>

    <g transform="translate(0.000000,200.000000) scale(0.100000,-0.100000)"
       fill="url(#background)" stroke="none">
        <path d="M888 1990 c-186 -32 -380 -143 -558 -320 -150 -151 -240 -291 -295
-460 -25 -75 -28 -100 -28 -210 0 -110 3 -135 28 -210 31 -97 61 -160 113
-238 l36 -54 -26 -101 c-15 -56 -26 -103 -24 -104 2 -2 27 3 57 11 131 33 128
34 201 -32 61 -55 198 -151 263 -184 57 -29 190 -69 264 -79 213 -30 453 61
679 258 277 241 420 537 391 811 -13 116 -80 297 -136 363 -10 12 -11 23 -2
48 16 44 6 113 -20 150 -30 42 -73 62 -145 68 -52 5 -66 11 -96 38 -62 58
-231 164 -314 196 -140 53 -267 69 -388 49z m-151 -512 c-193 -620 -290 -941
-307 -1016 -7 -28 -17 -55 -24 -59 -6 -4 -57 -19 -113 -33 -86 -22 -103 -23
-103 -11 0 15 105 396 170 616 21 72 55 186 75 255 20 69 57 190 82 270 25 80
47 151 49 158 2 9 35 12 117 12 l114 0 -60 -192z m1027 169 c15 -10 35 -35 43
-55 18 -42 13 -69 -38 -236 l-31 -98 -111 7 c-62 4 -113 8 -114 9 -1 1 11 44
27 96 17 51 29 95 27 96 -1 1 -69 4 -152 6 l-150 3 -38 -110 c-20 -60 -36
-123 -35 -139 4 -44 41 -65 138 -77 191 -23 300 -121 288 -257 -5 -54 -77
-302 -102 -351 -19 -37 -94 -88 -140 -96 -17 -3 -151 -2 -298 2 l-267 8 -30
29 c-39 38 -39 61 0 190 17 55 34 112 38 126 7 24 12 25 120 34 61 5 114 6
117 3 4 -3 -7 -46 -24 -96 l-30 -89 71 -6 c40 -3 108 -7 153 -10 l81 -4 38
120 c54 170 42 192 -115 209 -96 11 -151 30 -206 72 -52 39 -74 80 -74 139 0
46 97 351 125 394 9 13 33 36 55 50 77 51 96 54 360 51 219 -2 249 -4 274 -20z"/>
    </g>
</svg>
